<svg id="Calque_1" data-name="Calque 1" xmlns="http://www.w3.org/2000/svg" viewBox="0 0 151.89 175.14"><title>HDE_logo_black</title><polygon points="11.74 135.3 11.74 147.58 9.37 147.58 9.37 142.34 3.8 142.34 3.8 147.58 1.41 147.58 1.41 135.3 3.8 135.3 3.8 140.26 9.37 140.26 9.37 135.3 11.74 135.3" style="fill:#1d1d1b"/><path d="M242.49,317.24a5.29,5.29,0,0,1-2.37-.53,6,6,0,0,1-1.85-1.4,6.37,6.37,0,0,1-1.18-2,6.5,6.5,0,0,1-.42-2.3,6.26,6.26,0,0,1,.45-2.35,6.16,6.16,0,0,1,1.23-2,5.79,5.79,0,0,1,1.86-1.38,5.33,5.33,0,0,1,2.33-.51,5.1,5.1,0,0,1,2.37.55,6,6,0,0,1,1.83,1.42,6.7,6.7,0,0,1,1.6,4.3,6.21,6.21,0,0,1-.45,2.34,6.33,6.33,0,0,1-1.22,2,5.76,5.76,0,0,1-1.85,1.37,5.33,5.33,0,0,1-2.33.51M239.08,311a5.32,5.32,0,0,0,.23,1.54,4,4,0,0,0,.68,1.31,3.2,3.2,0,0,0,1.08.92,3,3,0,0,0,1.45.35,2.94,2.94,0,0,0,1.47-.36,3.29,3.29,0,0,0,1.06-.94,4.3,4.3,0,0,0,.66-1.32,5.09,5.09,0,0,0,.22-1.5,5,5,0,0,0-.24-1.54,4.4,4.4,0,0,0-.68-1.31,3.37,3.37,0,0,0-1.08-.91,3.16,3.16,0,0,0-2.89,0,3.29,3.29,0,0,0-1.07.93,4.5,4.5,0,0,0-.67,1.31,5.09,5.09,0,0,0-.22,1.5" transform="translate(-221.11 -169.57)" style="fill:#1d1d1b"/><path d="M252.14,317.15V304.87h5.43a3.58,3.58,0,0,1,1.57.35,4.11,4.11,0,0,1,1.24.94,4.5,4.5,0,0,1,.81,1.31,3.9,3.9,0,0,1,.29,1.48,4,4,0,0,1-.59,2.17,3.41,3.41,0,0,1-1.62,1.41l2.89,4.62h-2.7L256.88,313h-2.35v4.12Zm2.39-6.21h3a1.32,1.32,0,0,0,.62-.15,1.67,1.67,0,0,0,.49-.43,2.1,2.1,0,0,0,.33-.63,2.45,2.45,0,0,0,.12-.78,2.22,2.22,0,0,0-.14-.79,1.8,1.8,0,0,0-.91-1.05,1.34,1.34,0,0,0-.61-.15h-2.89Z" transform="translate(-221.11 -169.57)" style="fill:#1d1d1b"/><path d="M273.11,308.09a3.24,3.24,0,0,0-.44-.33,4.66,4.66,0,0,0-.78-.41,8.19,8.19,0,0,0-1-.34,4.45,4.45,0,0,0-1.09-.13,2.45,2.45,0,0,0-1.47.36,1.18,1.18,0,0,0-.49,1,1.07,1.07,0,0,0,.18.63,1.47,1.47,0,0,0,.53.44,4.61,4.61,0,0,0,.87.35l1.22.33a15.94,15.94,0,0,1,1.64.52,4.4,4.4,0,0,1,1.25.69,2.86,2.86,0,0,1,.78,1,3.26,3.26,0,0,1,.28,1.43,3.54,3.54,0,0,1-.37,1.69,3.21,3.21,0,0,1-1,1.13,4.15,4.15,0,0,1-1.45.63,7,7,0,0,1-1.73.2,9.46,9.46,0,0,1-2.73-.41,8.57,8.57,0,0,1-2.43-1.18l1.06-2.06a3.53,3.53,0,0,0,.56.41,10.43,10.43,0,0,0,1,.5,6.82,6.82,0,0,0,1.23.42,5.33,5.33,0,0,0,1.38.18c1.32,0,2-.42,2-1.27a1.08,1.08,0,0,0-.23-.69,2,2,0,0,0-.64-.48,5.67,5.67,0,0,0-1-.38c-.39-.12-.83-.24-1.32-.37a12.32,12.32,0,0,1-1.53-.52,4.64,4.64,0,0,1-1.08-.67,2.42,2.42,0,0,1-.65-.9,3.3,3.3,0,0,1-.21-1.23,3.82,3.82,0,0,1,.34-1.66,3.27,3.27,0,0,1,1-1.21,4.51,4.51,0,0,1,1.43-.74,6.11,6.11,0,0,1,1.75-.25,6.76,6.76,0,0,1,2.38.41,9,9,0,0,1,1.91,1Z" transform="translate(-221.11 -169.57)" style="fill:#1d1d1b"/><polygon points="65.81 145.49 65.81 147.58 57.28 147.58 57.28 135.3 65.65 135.3 65.65 137.39 59.67 137.39 59.67 140.35 64.84 140.35 64.84 142.29 59.67 142.29 59.67 145.49 65.81 145.49" style="fill:#1d1d1b"/><path d="M296.92,317.15V304.87h4.46a6.72,6.72,0,0,1,2.64.48,5.53,5.53,0,0,1,1.9,1.32,5.62,5.62,0,0,1,1.14,1.94,7.46,7.46,0,0,1,.38,2.38,7.05,7.05,0,0,1-.43,2.54,5.31,5.31,0,0,1-3.13,3.18,6.63,6.63,0,0,1-2.5.44ZM305,311a5.2,5.2,0,0,0-.24-1.62,3.54,3.54,0,0,0-.71-1.28,3,3,0,0,0-1.15-.83,3.83,3.83,0,0,0-1.55-.3h-2.07v8.1h2.07a3.73,3.73,0,0,0,1.57-.31,3.37,3.37,0,0,0,1.14-.86,3.82,3.82,0,0,0,.7-1.29A5.18,5.18,0,0,0,305,311" transform="translate(-221.11 -169.57)" style="fill:#1d1d1b"/><polygon points="98.73 145.49 98.73 147.58 90.2 147.58 90.2 135.3 98.58 135.3 98.58 137.39 92.59 137.39 92.59 140.35 97.76 140.35 97.76 142.29 92.59 142.29 92.59 145.49 98.73 145.49" style="fill:#1d1d1b"/><polygon points="105.01 139.71 105.01 147.58 102.63 147.58 102.63 135.3 104.48 135.3 110.88 143.36 110.88 135.31 113.27 135.31 113.27 147.58 111.33 147.58 105.01 139.71" style="fill:#1d1d1b"/><polygon points="126.99 137.39 123.08 137.39 123.08 147.58 120.69 147.58 120.69 137.39 116.76 137.39 116.76 135.3 126.99 135.3 126.99 137.39" style="fill:#1d1d1b"/><path d="M349.1,317.15l4.84-12.28h1.94l4.83,12.28h-2.53l-1.12-3.06h-4.31l-1.13,3.06Zm5.81-9.7-1.76,5h3.47Z" transform="translate(-221.11 -169.57)" style="fill:#1d1d1b"/><polygon points="142.87 147.58 142.87 135.3 145.26 135.3 145.26 145.49 151.52 145.49 151.52 147.58 142.87 147.58" style="fill:#1d1d1b"/><line x1="0.02" y1="152.98" x2="151.89" y2="152.98" style="fill:#1d1d1b"/><polyline points="0.02 152.81 150.66 152.81 150.66 153.14 0.02 153.14" style="fill:#1d1d1b"/><path d="M322.7,184l.84.41,0,0h0l-.14-.08a2.29,2.29,0,0,0-.27-.14l-.09,0-.11,0-.07,0,0,0h-.07" transform="translate(-221.11 -169.57)" style="fill:#1d1d1b"/><path d="M372.42,169.57H221.71V297.94H258c-.25-.39-.57-.95-1-1.74a36.83,36.83,0,0,1-2.29-5.44c.24.88.55,1.88.92,3a56.56,56.56,0,0,1-2.63-6.81,121.69,121.69,0,0,1-3.66-18.45c-.05-.33-.09-.67-.14-1-.35-2.78-.89-7.6-1.23-13.38a177.49,177.49,0,0,1-.1-19.09,95.12,95.12,0,0,1,2.55-18.16,71.81,71.81,0,0,1,3.44-10.38,65.6,65.6,0,0,1,3.35-6.45,48,48,0,0,1,4.23-5.9,35.26,35.26,0,0,1,5.2-5.09,34.4,34.4,0,0,1,6.17-3.91,35.74,35.74,0,0,1,6.88-2.4,38.08,38.08,0,0,1,7.19-.94l.91-.05h.9l1.81,0c1.2.1,2.39.13,3.61.29,2.44.3,4.76.85,7,1.34-1.38-.17,3.12.86,1.74.69-.87-.07-4.59-1.07-7.19-1.46-.82-.11-1.58-.19-2.28-.22s-1.31,0-1.88,0a19.54,19.54,0,0,0-2.69.14,5.35,5.35,0,0,0-2.26.54c-.19.08-3.87.34-6.28.89.47,0,.25.11-.29.34s-1.43.5-2.32.87c-1.81.7-3.62,1.71-3.28,1.76l-.63.27-.63.33-1.3.68c-.45.23-.87.53-1.31.79s-.89.53-1.3.86a27,27,0,0,0-2.43,1.92c-.38.34-.76.66-1.12,1l-1,1-.64.69c-.21.23-.4.49-.6.73-.39.5-.8,1-1.18,1.5-.72,1.06-1.49,2.09-2.12,3.23a57.22,57.22,0,0,0-6.8,16.25,85.57,85.57,0,0,0-2.39,16.68c-.08.84-.15,1.74-.2,2.77a.86.86,0,0,1,.06.37c0,.33,0,.66,0,1-.11,2.27-.18,4.46-.16,6,0,.38,0,.33.09.23,0,3.81.16,7.63.42,11.47.09,2.08.18,4.13.33,6.09l.13.17c.31,2.52.32,4.57.72,7.08.14.79.14.27.21.28.32,2.41.68,4.81,1.1,7.22s.84,4.79,1.37,7.15a57.48,57.48,0,0,0,4.62,13.53c.24.44.53,1.1.86,1.71H315c.06-.22.11-.45.16-.67,1.08-4.63,2.13-9.15,3.18-13.63l.6-2.22s0-.1,0-.31.13-.54.19-.81a3.4,3.4,0,0,0,.1-1.87,3.17,3.17,0,0,0-.8-1.36c-.18-.18-.19-.13-.17-.05-2.17-2.2-4.43-4.47-6.6-6.8-1.15-1.31-2.23-2.64-3.26-3.9l-.18,0c-1.42-1.57-2.35-3-3.69-4.65-.44-.51-.23-.13-.29-.1a60.78,60.78,0,0,1-6.6-10.44,42.34,42.34,0,0,1-3.79-11.86c-.05-.25-.09-.56-.13-.9,0-.15,0-.3-.05-.47a4,4,0,0,0-.06-.43,9.75,9.75,0,0,0-.78-2.19c-.18-.45-.34-.88-.48-1.26.25.46.49.92.73,1.38-.27-.52-.55-1.05-.8-1.61,0-.14-.09-.29-.12-.42.35.76.74,1.44,1.09,2.11-.28-.53-.83-1.6-1.13-2.28h0a37.4,37.4,0,0,1,1.86,4c-.21-.78-.45-1.28-.51-1.52s0-.2.16,0a6.11,6.11,0,0,1,.68,1.32,5.39,5.39,0,0,1,.29,1.06c.09.44.18.92.27,1.43-.05-.33-.13-.83-.2-1.24a3.93,3.93,0,0,1-.08-.66,6.48,6.48,0,0,1,.35,1.76,21.52,21.52,0,0,0,.38,2.16,10.85,10.85,0,0,0-.31-1.95c-.08-.53-.16-1.08-.23-1.53s-.11-.73-.11-.85c.09.31.14.6.21.94s.12.68.19,1l.18,1c.08.33.15.65.21,1s0-.38-.19-1.29a12.35,12.35,0,0,1-.28-1.86c.22,1.31.3,2,.61,3.27-.29-1.82.21-.3.09-1.47,0-.83-.06-1.81,0-2.12,0-.16.09-.1.19.24s.25.95.47,2c.11.36.28,1,.46,1.81s.47,1.74.76,2.66c-.17-.69-.31-1.51-.5-2.37a46.8,46.8,0,0,0,2.1,5.28,57.28,57.28,0,0,0,3.36,6.25,75.85,75.85,0,0,0,4.41,6.32l.51.64c1.37,1.76,3.85,4.78,7,8.18,1.59,1.7,3.34,3.51,5.17,5.38l.68.71a8.8,8.8,0,0,1,.77.88,5.87,5.87,0,0,1,1.15,5c-.1.44-.17.71-.26,1l-.25,1c-1.31,5.17-2.59,10.22-3.63,14.29-.1.39-.19.76-.28,1.13h54.63ZM322.69,184h.09l0,0,.06,0h0l.11,0,.1,0,.26.14.14.08h0l.05,0h0l0,0h0l.05,0c-.05.07-.12.14-.15.19l.1-.22h0l.05,0-.92-.46h0Zm23.8,47.76a22.08,22.08,0,0,1-2.54,9,18.53,18.53,0,0,1-4,4.86,9.85,9.85,0,0,1-6.15,2.74,8.49,8.49,0,0,1-3.46-.64,9.1,9.1,0,0,1-1.5-.74c-.48-.28-.84-.51-1.25-.77-1.61-1-3.17-2-4.75-2.76a14.94,14.94,0,0,0-4.81-1.55,11.2,11.2,0,0,0-2.46,0,20.45,20.45,0,0,0-2.57.39,26.1,26.1,0,0,0-2.54.73l-.64.23c-.25.08-.5.18-.75.25-.51.16-1,.3-1.55.41a14.8,14.8,0,0,1-6.42-.08c.64.08-.09-.11-.78-.37s-1.32-.55-.76-.41c.39.09,1.4.44,2.64.66a13.1,13.1,0,0,0,3.84.09,13.4,13.4,0,0,0,3.46-1l1.9-.88A5.23,5.23,0,0,0,313,241a7.58,7.58,0,0,1,1.8-.38,13.89,13.89,0,0,1,3.15-.07c-.69-.24.75-.33,2.32,0s3.2.93,3.07.65a39.41,39.41,0,0,1,4.34,2.49l2.17,1.37a8,8,0,0,0,2.09.92,5.62,5.62,0,0,0,2.85,0,7.39,7.39,0,0,0,2.59-1.35,16.39,16.39,0,0,0,4.5-5.4,19,19,0,0,0,1.85-6.56,25.7,25.7,0,0,0,.12-3.4,9.67,9.67,0,0,0-.12-1.58,5.55,5.55,0,0,0-.15-.73,5.36,5.36,0,0,0-.23-.71,10.45,10.45,0,0,0-4-4.55c-.53-.42-1.11-.82-1.82-1.34a.56.56,0,0,1-.3-.11l-.69-.48c-.78-.56-1.5-1.16-2.18-1.69s-1.29-1.06-1.81-1.47c-.26-.19-.25-.14-.21-.06a75.66,75.66,0,0,1-7-6.61c-1.15-1.33-2.24-2.66-3.26-4l-.18-.05c-1.4-1.61-2.27-3.1-3.56-4.78-.42-.53-.22-.14-.29-.11-1.18-1.66-2.32-3.36-3.39-5.09-.55-.87-1.08-1.74-1.59-2.62-.25-.45-.51-.86-.78-1.36a7.71,7.71,0,0,1-.73-1.76,3.79,3.79,0,0,1-.13-1.26,3.42,3.42,0,0,1,.4-1.39,4.63,4.63,0,0,1,1.63-1.64l.63-.38a3.84,3.84,0,0,0,.44-.32,1.72,1.72,0,0,0,.49-.56l0,0v0c0,.12,0,0,0,0h0v0l.08-.17a2.2,2.2,0,0,1,.16-.31l.23-.38.43-.64.81-1.22a26.32,26.32,0,0,0,1.38-2.46,12.49,12.49,0,0,0,1.36-3.81,3.1,3.1,0,0,0,.08-.58,5.05,5.05,0,0,0,.05-.52c0,.21,0,.42,0,.64a.33.33,0,0,0,0-.1,2.88,2.88,0,0,0-.05-.72c0-.13,0-.24,0-.35a4.45,4.45,0,0,1,.14,1c0,.17,0,.33,0,.5l0,.51a6.58,6.58,0,0,0-.11-2.12h0a7.06,7.06,0,0,1-.25,3.88c.53-1.61.54-2,.58-1.39a10.24,10.24,0,0,1-1.11,3.85c.31-.57.76-1.77.77-1.71a4.55,4.55,0,0,1-.64,1.64c-.38.76-.9,1.52-1.06,1.83a6.31,6.31,0,0,0,1-1.62c.25-.47.46-1,.64-1.36a4.77,4.77,0,0,1,.37-.81,16.78,16.78,0,0,1-1.64,3.6c-.16.44.27-.27.69-1.08s.77-1.76.8-1.67a22.91,22.91,0,0,1-1.47,2.93c1-1.53.38-.07,1-1,.49-.67,1-1.57,1.18-1.81s.19.28-.73,2.28a15.47,15.47,0,0,1-.93,1.74l-.74,1.16c-.26.4-.57.85-.76,1.17l.66-.86.8-1.07-.74,1.29c-.11.21-.25.43-.34.61l-.08.14s0,0,0,.06h0l-.26-.1-.29-.09.52.24h0l0,0,0,.09-.07.15a4.79,4.79,0,0,1-1.22,1.57,6.9,6.9,0,0,1-.7.54l-.34.23-.24.16a1.42,1.42,0,0,0-.53.58,2.07,2.07,0,0,0,0,.21,2,2,0,0,0,.17.5,12.1,12.1,0,0,0,.81,1.48c.34.54.67,1.1,1,1.66,1.38,2.22,2.89,4.48,4.31,6.47l.48.66a83,83,0,0,0,6.83,8.24,75.85,75.85,0,0,0,11.46,9.93,30.32,30.32,0,0,1,3.3,2.54,12.07,12.07,0,0,1,2.69,3.43,10.12,10.12,0,0,1,1.07,4.1,31.43,31.43,0,0,1-.07,3.54M320.54,183h-.16c-.12.07-.21-.05-.29-.14l-.07-.06.52.18" transform="translate(-221.11 -169.57)" style="fill:#1d1d1b"/><path d="M259.05,298s0,0,0-.08h0l0,.08" transform="translate(-221.11 -169.57)" style="fill:#1d1d1b"/><polygon points="10.7 173.99 10.7 175.03 0 175.03 0 158.97 10.49 158.97 10.49 160.01 1.15 160.01 1.15 166.32 9.32 166.32 9.32 167.32 1.15 167.32 1.15 173.99 10.7 173.99" style="fill:#1d1d1b"/><path d="M248.59,343.09a7.62,7.62,0,0,1-2.09,1.2,7.05,7.05,0,0,1-2.43.42A6.62,6.62,0,0,1,241,344a7.61,7.61,0,0,1-2.37-1.83,8,8,0,0,1-1.54-2.6,8.65,8.65,0,0,1-.54-3,8.41,8.41,0,0,1,.57-3.07,8.49,8.49,0,0,1,1.59-2.6,7.39,7.39,0,0,1,2.38-1.8,6.72,6.72,0,0,1,3-.67,6.62,6.62,0,0,1,3,.71A7.73,7.73,0,0,1,249.5,331a8.54,8.54,0,0,1,1.53,2.61,8.45,8.45,0,0,1,.54,2.95,8.27,8.27,0,0,1-.62,3.21,8.36,8.36,0,0,1-1.71,2.67L251,344.6h-1.18Zm-4.52.56a5.66,5.66,0,0,0,2.08-.38,7,7,0,0,0,1.74-1l-1.9-2.29h1.2l1.35,1.65a7,7,0,0,0,1.39-2.33,7.53,7.53,0,0,0,.49-2.69,7.45,7.45,0,0,0-.48-2.65,7.13,7.13,0,0,0-1.32-2.27,6.44,6.44,0,0,0-2-1.57,5.61,5.61,0,0,0-2.54-.59,5.69,5.69,0,0,0-2.63.61,6.43,6.43,0,0,0-2,1.62,7.57,7.57,0,0,0-1.28,2.27,7.77,7.77,0,0,0,0,5.24,7.08,7.08,0,0,0,1.32,2.26,6.29,6.29,0,0,0,2,1.57,5.49,5.49,0,0,0,2.57.59" transform="translate(-221.11 -169.57)" style="fill:#1d1d1b"/><path d="M263.79,343.65a5.39,5.39,0,0,0,2.7-.61,5,5,0,0,0,1.71-1.6,6.69,6.69,0,0,0,.89-2.27,12.83,12.83,0,0,0,.26-2.55v-8.08h1.15v8.08a12.84,12.84,0,0,1-.35,3.07,7.25,7.25,0,0,1-1.14,2.59,5.68,5.68,0,0,1-2.07,1.78,6.77,6.77,0,0,1-3.13.65,6.57,6.57,0,0,1-3.19-.69,5.65,5.65,0,0,1-2.07-1.83,7.45,7.45,0,0,1-1.11-2.59,13.34,13.34,0,0,1-.33-3v-8.08h1.16v8.08a12.4,12.4,0,0,0,.26,2.6,6.59,6.59,0,0,0,.89,2.25,4.7,4.7,0,0,0,1.7,1.58,5.36,5.36,0,0,0,2.67.6" transform="translate(-221.11 -169.57)" style="fill:#1d1d1b"/><rect x="55.95" y="159" width="1.15" height="16.04" style="fill:#1d1d1b"/><path d="M285,344.6V328.54h6.61a4.25,4.25,0,0,1,1.88.43,4.88,4.88,0,0,1,1.48,1.15,5.66,5.66,0,0,1,1,1.6,5,5,0,0,1,.35,1.8,5.47,5.47,0,0,1-.33,1.88,5.09,5.09,0,0,1-.93,1.6,4.55,4.55,0,0,1-1.42,1.12,4,4,0,0,1-1.84.42H286.2v6.06Zm1.16-7.12h5.54a3,3,0,0,0,1.42-.33,3.3,3.3,0,0,0,1.08-.88,4.18,4.18,0,0,0,.68-1.27,4.87,4.87,0,0,0,.23-1.48,4,4,0,0,0-.28-1.5,4,4,0,0,0-.77-1.26,3.65,3.65,0,0,0-1.13-.86,3.07,3.07,0,0,0-1.37-.32h-5.4Z" transform="translate(-221.11 -169.57)" style="fill:#1d1d1b"/><polygon points="95.12 175.03 95.12 161.15 88.79 171.98 88.07 171.98 81.73 161.15 81.73 175.03 80.58 175.03 80.58 158.97 81.73 158.97 88.43 170.46 95.12 158.97 96.28 158.97 96.28 175.03 95.12 175.03" style="fill:#1d1d1b"/><polygon points="113.8 173.99 113.8 175.03 103.11 175.03 103.11 158.97 113.6 158.97 113.6 160.01 104.26 160.01 104.26 166.32 112.42 166.32 112.42 167.32 104.26 167.32 104.26 173.99 113.8 173.99" style="fill:#1d1d1b"/><polygon points="120.75 161.15 120.75 175.03 119.59 175.03 119.59 158.97 120.47 158.97 131.74 173.11 131.74 159 132.89 159 132.89 175.03 131.83 175.03 120.75 161.15" style="fill:#1d1d1b"/><polygon points="150.98 160.01 145.1 160.01 145.1 175.03 143.95 175.03 143.95 160.01 138.07 160.01 138.07 158.97 150.98 158.97 150.98 160.01" style="fill:#1d1d1b"/></svg>